<mxfile host="app.diagrams.net" modified="2023-05-23T02:18:39.712Z" agent="Mozilla/5.0 (Windows NT 10.0; Win64; x64) AppleWebKit/537.36 (KHTML, like Gecko) Chrome/113.0.0.0 Safari/537.36 Edg/113.0.1774.50" version="21.3.2" etag="hPYBmFb_Hxu9hUDd6lo2" type="github">
  <diagram name="第 1 页" id="iISZ1i06i-iWEMT5HrnV">
    <mxGraphModel>
      <root>
        <mxCell id="0" />
        <mxCell id="1" parent="0" />
      </root>
    </mxGraphModel>
  </diagram>
</mxfile>
